<svg xmlns="http://www.w3.org/2000/svg" width="113" height="56" viewBox="0 0 113 56" fill="none"><g clip-path="url(#clip0_2060_7082)"><path d="M0.140625 49.6181H1.48144V55.2858L0.860088 55.4164C0.652971 55.4164 0.478553 55.3511 0.336842 55.2204C0.206031 55.079 0.140625 54.9046 0.140625 54.6978V49.6181ZM0.860088 55.4164V54.2731H6.1743C6.22881 54.3166 6.27241 54.3874 6.30511 54.4854C6.33781 54.5834 6.35417 54.6922 6.35417 54.8121C6.35417 54.9973 6.30511 55.1443 6.207 55.2531C6.10889 55.3619 5.97808 55.4164 5.81457 55.4164H0.860088ZM1.48144 50.5981H0.140625V45.5184C0.19513 45.4966 0.276887 45.475 0.385896 45.4531C0.505808 45.4204 0.631168 45.4041 0.761979 45.4041C1.0018 45.4041 1.18166 45.4531 1.30158 45.5511C1.42149 45.6383 1.48144 45.7906 1.48144 46.0084V50.5981ZM11.5824 46.5148H11.517C11.3535 46.9721 11.1573 47.5166 10.9284 48.1481C10.7103 48.7796 10.4814 49.4329 10.2416 50.1081C10.0127 50.7722 9.79465 51.3929 9.58754 51.9701L9.50578 52.2151C9.44038 52.4111 9.35862 52.6561 9.26051 52.9501C9.16241 53.2441 9.05884 53.5544 8.94984 53.8811C8.84081 54.197 8.73727 54.4962 8.63916 54.7794C8.54105 55.0516 8.46473 55.275 8.41024 55.4491C8.33391 55.4818 8.25216 55.5036 8.16497 55.5144C8.08864 55.5363 7.99053 55.5471 7.87064 55.5471C7.69621 55.5471 7.53815 55.5036 7.39645 55.4164C7.26564 55.3184 7.20023 55.1659 7.20023 54.9591C7.20023 54.8611 7.21659 54.7631 7.24929 54.6651C7.28199 54.5563 7.32013 54.442 7.36375 54.3221C7.49456 53.952 7.65261 53.4999 7.83794 52.9664C8.03416 52.433 8.24673 51.8502 8.47565 51.2188C8.70457 50.5873 8.94438 49.9392 9.19511 49.2751C9.44581 48.611 9.69108 47.9629 9.93092 47.3314C10.1707 46.7 10.3942 46.1228 10.6013 45.6001C10.6885 45.5566 10.8193 45.5129 10.9938 45.4694C11.1682 45.426 11.348 45.4041 11.5334 45.4041C11.7514 45.4041 11.9585 45.4368 12.1547 45.5021C12.3618 45.5674 12.4926 45.6762 12.5471 45.8288C12.8088 46.4602 13.0867 47.1789 13.3811 47.9848C13.6863 48.7796 13.9915 49.6126 14.2968 50.4838C14.602 51.3439 14.8908 52.1824 15.1634 52.9991C15.4468 53.8158 15.6975 54.5563 15.9155 55.2204C15.8392 55.3184 15.7357 55.3946 15.6049 55.4491C15.4849 55.5144 15.3487 55.5471 15.1961 55.5471C14.9889 55.5471 14.8309 55.5036 14.7219 55.4164C14.6129 55.3184 14.5202 55.1606 14.4439 54.9428L13.5446 52.2804L13.4138 51.8231C13.1957 51.159 12.9668 50.4893 12.727 49.8141C12.4981 49.1389 12.2801 48.513 12.073 47.9358C11.8767 47.3586 11.7132 46.8849 11.5824 46.5148ZM8.86808 52.7704L9.29322 51.6761H13.8553L14.1169 52.7704H8.86808ZM17.5147 46.6128L18.6266 46.5148C18.6701 46.8522 18.7083 47.2498 18.741 47.7071C18.7737 48.1644 18.7955 48.6381 18.8064 49.1281C18.8282 49.6073 18.8391 50.0646 18.8391 50.5001V55.3838C18.7846 55.4056 18.6974 55.4272 18.5775 55.4491C18.4685 55.4818 18.354 55.4981 18.2341 55.4981C17.9943 55.4981 17.8144 55.4546 17.6945 55.3674C17.5746 55.2694 17.5147 55.1169 17.5147 54.9101V46.6128ZM25.396 54.2894L24.2678 54.3874C24.1588 53.4728 24.0934 52.5418 24.0716 51.5944C24.0607 50.6363 24.0552 49.7106 24.0552 48.8178V45.5184C24.1206 45.4966 24.2078 45.475 24.3168 45.4531C24.4258 45.4204 24.5458 45.4041 24.6766 45.4041C24.9164 45.4041 25.0963 45.4531 25.2162 45.5511C25.3361 45.6383 25.396 45.7853 25.396 45.9921V54.2894ZM25.396 53.7994V53.7341V55.2368C25.2979 55.3129 25.1726 55.3782 25.02 55.4328C24.8673 55.4873 24.6984 55.5144 24.5131 55.5144C24.2514 55.5144 24.028 55.4654 23.8427 55.3674C23.6573 55.2586 23.4884 55.0679 23.3358 54.7958L20.229 49.5691C20.0655 49.2751 19.8856 48.954 19.6894 48.6054C19.4932 48.2461 19.3078 47.9086 19.1334 47.5928C18.959 47.2661 18.8228 46.9992 18.7247 46.7924L17.5147 47.1028V45.6818C17.6019 45.5946 17.7218 45.524 17.8744 45.4694C18.0379 45.4149 18.2123 45.3878 18.3976 45.3878C18.6593 45.3878 18.8827 45.4423 19.068 45.5511C19.2534 45.6491 19.4223 45.8343 19.5749 46.1064L22.6981 51.3331C22.8725 51.6271 23.0523 51.9538 23.2376 52.3131C23.4339 52.6616 23.6137 52.9991 23.7772 53.3258C23.9408 53.6416 24.0716 53.903 24.1697 54.1098L25.396 53.7994ZM34.9478 50.3368C34.9478 51.698 34.6208 52.7322 33.9668 53.4401C33.3127 54.1369 32.348 54.4854 31.0726 54.4854C30.7563 54.4854 30.4457 54.4746 30.1405 54.4528C29.8462 54.4309 29.5682 54.3874 29.3066 54.3221V46.5474C29.5247 46.504 29.7644 46.4713 30.0261 46.4494C30.2877 46.4276 30.5876 46.4168 30.9254 46.4168C31.6668 46.4168 32.3372 46.553 32.9366 46.8251C33.5472 47.0864 34.0322 47.5056 34.3919 48.0828C34.7624 48.6489 34.9478 49.4002 34.9478 50.3368ZM36.305 50.3368C36.305 49.2153 36.0761 48.2843 35.6182 47.5438C35.1712 46.8032 34.5446 46.2479 33.7378 45.8778C32.9422 45.4966 32.0101 45.3061 30.9417 45.3061C30.5166 45.3061 30.0915 45.3224 29.6663 45.3551C29.2412 45.3878 28.8596 45.4586 28.5217 45.5674C28.3473 45.622 28.211 45.6981 28.1129 45.7961C28.0257 45.8833 27.9821 46.014 27.9821 46.1881V54.5834C27.9821 54.9428 28.211 55.1933 28.6689 55.3348C29.0613 55.4546 29.4757 55.5252 29.9116 55.5471C30.3586 55.5798 30.7511 55.5961 31.0889 55.5961C32.1462 55.5961 33.0619 55.4056 33.8359 55.0244C34.6208 54.6432 35.2258 54.0663 35.651 53.2931C36.0869 52.5091 36.305 51.5236 36.305 50.3368ZM38.3218 49.4384H39.6462V55.2858C39.6027 55.2966 39.521 55.324 39.401 55.3674C39.2813 55.4001 39.1613 55.4164 39.0412 55.4164C38.8234 55.4164 38.6488 55.3511 38.518 55.2204C38.3872 55.079 38.3218 54.9046 38.3218 54.6978V49.4384ZM39.6462 51.3658L38.3218 51.3494V46.2044C38.3218 45.9866 38.3872 45.8124 38.518 45.6818C38.6488 45.5511 38.8234 45.4858 39.0412 45.4858C39.1613 45.4858 39.2813 45.5021 39.401 45.5348C39.521 45.5674 39.6027 45.5946 39.6462 45.6164V51.3658ZM39.0412 50.8758V49.7651H43.963C43.9957 49.8086 44.0284 49.8794 44.0611 49.9774C44.0938 50.0754 44.1102 50.179 44.1102 50.2878C44.1102 50.4619 44.0667 50.6036 43.9794 50.7124C43.8924 50.8212 43.7668 50.8758 43.6033 50.8758H39.0412ZM39.0412 55.4164V54.3058H44.5517C44.5844 54.3492 44.6171 54.4201 44.6498 54.5181C44.6825 54.6053 44.6988 54.7086 44.6988 54.8284C44.6988 55.0026 44.6553 55.1443 44.568 55.2531C44.481 55.3619 44.3555 55.4164 44.1919 55.4164H39.0412ZM39.0412 46.6128V45.4858H44.4699C44.5026 45.5292 44.5353 45.6001 44.568 45.6981C44.6007 45.7961 44.6171 45.8996 44.6171 46.0084C44.6171 46.1826 44.5736 46.3296 44.4863 46.4494C44.3993 46.5582 44.2737 46.6128 44.1102 46.6128H39.0412ZM49.3645 54.5181C50.0951 54.5181 50.6455 54.3548 51.016 54.0281C51.3977 53.6906 51.5883 53.2604 51.5883 52.7378C51.5883 52.2912 51.4412 51.9211 51.1468 51.6271C50.8636 51.3331 50.411 51.0989 49.7897 50.9248L48.3671 50.5001C47.9093 50.3586 47.5116 50.179 47.1735 49.9611C46.8356 49.7324 46.574 49.4548 46.3886 49.1281C46.2143 48.7906 46.127 48.3986 46.127 47.9521C46.127 47.1136 46.4324 46.4602 47.0426 45.9921C47.6532 45.5129 48.4652 45.2734 49.479 45.2734C50.0676 45.2734 50.5909 45.3388 51.0487 45.4694C51.5177 45.5893 51.8827 45.7471 52.1443 45.9431C52.417 46.1391 52.5531 46.3459 52.5531 46.5638C52.5531 46.7052 52.5151 46.8359 52.4386 46.9558C52.3624 47.0646 52.2643 47.1518 52.1443 47.2171C51.8719 46.9992 51.5013 46.8088 51.0324 46.6454C50.5745 46.4821 50.0732 46.4004 49.5281 46.4004C48.8959 46.4004 48.3946 46.5419 48.0237 46.8251C47.6532 47.0972 47.4678 47.4729 47.4678 47.9521C47.4678 48.3333 47.5986 48.6436 47.8602 48.8831C48.1329 49.1226 48.5689 49.3296 49.1683 49.5038L50.1658 49.7978C51.0271 50.0372 51.7028 50.3858 52.1933 50.8431C52.695 51.3004 52.9455 51.9319 52.9455 52.7378C52.9455 53.5979 52.6296 54.295 51.9971 54.8284C51.3758 55.3619 50.4983 55.6288 49.3645 55.6288C48.6997 55.6288 48.1166 55.5579 47.6149 55.4164C47.1244 55.2639 46.7375 55.079 46.454 54.8611C46.1816 54.6324 46.0452 54.4093 46.0452 54.1914C46.0452 54.0062 46.0998 53.854 46.2087 53.7341C46.3287 53.6034 46.4651 53.511 46.6175 53.4564C46.8683 53.6959 47.2225 53.9356 47.6803 54.1751C48.1382 54.4038 48.6997 54.5181 49.3645 54.5181ZM54.8496 49.4384H56.174V55.2858C56.1305 55.2966 56.0488 55.324 55.9288 55.3674C55.8088 55.4001 55.689 55.4164 55.569 55.4164C55.3509 55.4164 55.1766 55.3511 55.0458 55.2204C54.915 55.079 54.8496 54.9046 54.8496 54.6978V49.4384ZM56.174 51.3658L54.8496 51.3494V46.2044C54.8496 45.9866 54.915 45.8124 55.0458 45.6818C55.1766 45.5511 55.3509 45.4858 55.569 45.4858C55.689 45.4858 55.8088 45.5021 55.9288 45.5348C56.0488 45.5674 56.1305 45.5946 56.174 45.6164V51.3658ZM55.569 50.8758V49.7651H60.4908C60.5235 49.8086 60.5562 49.8794 60.5889 49.9774C60.6216 50.0754 60.638 50.179 60.638 50.2878C60.638 50.4619 60.5945 50.6036 60.5072 50.7124C60.4199 50.8212 60.2946 50.8758 60.1311 50.8758H55.569ZM55.569 55.4164V54.3058H61.0795C61.1122 54.3492 61.1449 54.4201 61.1776 54.5181C61.2103 54.6053 61.2266 54.7086 61.2266 54.8284C61.2266 55.0026 61.1831 55.1443 61.0958 55.2531C61.0085 55.3619 60.8832 55.4164 60.7197 55.4164H55.569ZM55.569 46.6128V45.4858H60.9977C61.0304 45.5292 61.0631 45.6001 61.0958 45.6981C61.1285 45.7961 61.1449 45.8996 61.1449 46.0084C61.1449 46.1826 61.1014 46.3296 61.0141 46.4494C60.9268 46.5582 60.8015 46.6128 60.638 46.6128H55.569ZM63.2256 49.4874H64.55V55.3838C64.4954 55.4056 64.4137 55.4272 64.3048 55.4491C64.1959 55.4818 64.0759 55.4981 63.945 55.4981C63.7053 55.4981 63.5255 55.4491 63.4054 55.3511C63.2854 55.2531 63.2256 55.1006 63.2256 54.8938V49.4874ZM64.55 50.5818H63.2256V45.5184C63.2802 45.4966 63.3619 45.475 63.4709 45.4531C63.5909 45.4204 63.7161 45.4041 63.8469 45.4041C64.0867 45.4041 64.2613 45.4531 64.3702 45.5511C64.4902 45.6383 64.55 45.7906 64.55 46.0084V50.5818ZM69.974 46.6128L69.8923 45.4858H73.7022C73.7349 45.5292 73.7676 45.6001 73.8003 45.6981C73.833 45.7961 73.8493 45.8996 73.8493 46.0084C73.8493 46.1826 73.8058 46.3296 73.7185 46.4494C73.6315 46.5582 73.506 46.6128 73.3424 46.6128H69.974ZM70.0068 45.4858L70.0885 46.6128H66.2623C66.2296 46.5582 66.1969 46.4821 66.1642 46.3841C66.1315 46.2861 66.1151 46.1826 66.1151 46.0738C66.1151 45.8886 66.1589 45.7471 66.2459 45.6491C66.3332 45.5403 66.4585 45.4858 66.622 45.4858H70.0068ZM69.32 46.1718H70.6445V55.3838C70.5901 55.4056 70.5028 55.4272 70.3828 55.4491C70.2739 55.4818 70.1595 55.4981 70.0395 55.4981C69.7997 55.4981 69.6199 55.4491 69.4999 55.3511C69.3801 55.2531 69.32 55.1006 69.32 54.8938V46.1718ZM75.3937 49.4384H76.7181V55.2858C76.6743 55.2966 76.5926 55.324 76.4729 55.3674C76.3529 55.4001 76.2328 55.4164 76.1131 55.4164C75.895 55.4164 75.7207 55.3511 75.5899 55.2204C75.4591 55.079 75.3937 54.9046 75.3937 54.6978V49.4384ZM76.7181 51.3658L75.3937 51.3494V46.2044C75.3937 45.9866 75.4591 45.8124 75.5899 45.6818C75.7207 45.5511 75.895 45.4858 76.1131 45.4858C76.2328 45.4858 76.3529 45.5021 76.4729 45.5348C76.5926 45.5674 76.6743 45.5946 76.7181 45.6164V51.3658ZM76.1131 50.8758V49.7651H81.0349C81.0676 49.8086 81.1003 49.8794 81.133 49.9774C81.1657 50.0754 81.1821 50.179 81.1821 50.2878C81.1821 50.4619 81.1383 50.6036 81.0513 50.7124C80.964 50.8212 80.8387 50.8758 80.6752 50.8758H76.1131ZM76.1131 55.4164V54.3058H81.6236C81.6563 54.3492 81.689 54.4201 81.7217 54.5181C81.7544 54.6053 81.7707 54.7086 81.7707 54.8284C81.7707 55.0026 81.7269 55.1443 81.6399 55.2531C81.5526 55.3619 81.4273 55.4164 81.2638 55.4164H76.1131ZM76.1131 46.6128V45.4858H81.5418C81.5745 45.5292 81.6072 45.6001 81.6399 45.6981C81.6726 45.7961 81.689 45.8996 81.689 46.0084C81.689 46.1826 81.6452 46.3296 81.5582 46.4494C81.4708 46.5582 81.3456 46.6128 81.1821 46.6128H76.1131ZM83.7533 46.6128L84.8652 46.5148C84.9087 46.8522 84.947 47.2498 84.9797 47.7071C85.0124 48.1644 85.034 48.6381 85.0451 49.1281C85.0667 49.6073 85.0778 50.0646 85.0778 50.5001V55.3838C85.0232 55.4056 84.9359 55.4272 84.8162 55.4491C84.707 55.4818 84.5925 55.4981 84.4728 55.4981C84.2328 55.4981 84.0529 55.4546 83.9332 55.3674C83.8132 55.2694 83.7533 55.1169 83.7533 54.9101V46.6128ZM91.6347 54.2894L90.5065 54.3874C90.3973 53.4728 90.3319 52.5418 90.3102 51.5944C90.2992 50.6363 90.2939 49.7106 90.2939 48.8178V45.5184C90.3593 45.4966 90.4463 45.475 90.5555 45.4531C90.6644 45.4204 90.7844 45.4041 90.9153 45.4041C91.155 45.4041 91.3348 45.4531 91.4548 45.5511C91.5746 45.6383 91.6347 45.7853 91.6347 45.9921V54.2894ZM91.6347 53.7994V53.7341V55.2368C91.5366 55.3129 91.411 55.3782 91.2586 55.4328C91.1059 55.4873 90.9369 55.5144 90.7517 55.5144C90.4901 55.5144 90.2664 55.4654 90.0813 55.3674C89.8959 55.2586 89.7269 55.0679 89.5744 54.7958L86.4677 49.5691C86.3042 49.2751 86.1243 48.954 85.9281 48.6054C85.7318 48.2461 85.5464 47.9086 85.3721 47.5928C85.1975 47.2661 85.0614 46.9992 84.9633 46.7924L83.7533 47.1028V45.6818C83.8403 45.5946 83.9604 45.524 84.1131 45.4694C84.2766 45.4149 84.4509 45.3878 84.6363 45.3878C84.8979 45.3878 85.1213 45.4423 85.3067 45.5511C85.4918 45.6491 85.6609 45.8343 85.8136 46.1064L88.9367 51.3331C89.111 51.6271 89.2909 51.9538 89.4763 52.3131C89.6725 52.6616 89.8524 52.9991 90.0159 53.3258C90.1794 53.6416 90.3102 53.903 90.4084 54.1098L91.6347 53.7994ZM93.0269 54.7304C93.0269 54.4691 93.1034 54.2512 93.2558 54.0771C93.4194 53.903 93.643 53.8158 93.9262 53.8158C94.2098 53.8158 94.4279 53.903 94.5803 54.0771C94.733 54.2512 94.8092 54.4691 94.8092 54.7304C94.8092 54.981 94.733 55.1933 94.5803 55.3674C94.4279 55.5416 94.2098 55.6288 93.9262 55.6288C93.643 55.6288 93.4194 55.5416 93.2558 55.3674C93.1034 55.1933 93.0269 54.981 93.0269 54.7304ZM103.159 50.3368C103.159 51.698 102.832 52.7322 102.178 53.4401C101.524 54.1369 100.559 54.4854 99.2834 54.4854C98.9675 54.4854 98.6568 54.4746 98.3514 54.4528C98.057 54.4309 97.7791 54.3874 97.5174 54.3221V46.5474C97.7355 46.504 97.9753 46.4713 98.2369 46.4494C98.4985 46.4276 98.7984 46.4168 99.1362 46.4168C99.8776 46.4168 100.548 46.553 101.147 46.8251C101.758 47.0864 102.243 47.5056 102.603 48.0828C102.974 48.6489 103.159 49.4002 103.159 50.3368ZM104.516 50.3368C104.516 49.2153 104.287 48.2843 103.829 47.5438C103.382 46.8032 102.755 46.2479 101.949 45.8778C101.153 45.4966 100.221 45.3061 99.1526 45.3061C98.7274 45.3061 98.3023 45.3224 97.8772 45.3551C97.452 45.3878 97.0707 45.4586 96.7326 45.5674C96.5582 45.622 96.4219 45.6981 96.3238 45.7961C96.2368 45.8833 96.193 46.014 96.193 46.1881V54.5834C96.193 54.9428 96.4219 55.1933 96.8797 55.3348C97.2722 55.4546 97.6865 55.5252 98.1224 55.5471C98.5695 55.5798 98.9619 55.5961 99.2997 55.5961C100.357 55.5961 101.273 55.4056 102.047 55.0244C102.832 54.6432 103.437 54.0663 103.862 53.2931C104.298 52.5091 104.516 51.5236 104.516 50.3368ZM106.533 49.4384H107.857V55.2858C107.814 55.2966 107.732 55.324 107.612 55.3674C107.492 55.4001 107.372 55.4164 107.252 55.4164C107.034 55.4164 106.86 55.3511 106.729 55.2204C106.598 55.079 106.533 54.9046 106.533 54.6978V49.4384ZM107.857 51.3658L106.533 51.3494V46.2044C106.533 45.9866 106.598 45.8124 106.729 45.6818C106.86 45.5511 107.034 45.4858 107.252 45.4858C107.372 45.4858 107.492 45.5021 107.612 45.5348C107.732 45.5674 107.814 45.5946 107.857 45.6164V51.3658ZM107.252 50.8758V49.7651H112.174C112.207 49.8086 112.24 49.8794 112.272 49.9774C112.305 50.0754 112.321 50.179 112.321 50.2878C112.321 50.4619 112.278 50.6036 112.19 50.7124C112.103 50.8212 111.978 50.8758 111.814 50.8758H107.252ZM107.252 55.4164V54.3058H112.763C112.796 54.3492 112.828 54.4201 112.861 54.5181C112.894 54.6053 112.91 54.7086 112.91 54.8284C112.91 55.0026 112.866 55.1443 112.779 55.2531C112.692 55.3619 112.567 55.4164 112.403 55.4164H107.252ZM107.252 46.6128V45.4858H112.681C112.714 45.5292 112.746 45.6001 112.779 45.6981C112.812 45.7961 112.828 45.8996 112.828 46.0084C112.828 46.1826 112.784 46.3296 112.697 46.4494C112.61 46.5582 112.485 46.6128 112.321 46.6128H107.252Z" fill="white"></path><path d="M61.4076 37.3926C61.101 37.852 60.6411 38.1583 60.1047 38.2344C59.3383 38.3111 58.1122 38.3111 56.4263 38.3111C54.8171 38.3111 53.6675 38.2344 53.0544 38.2344C52.315 38.2344 51.9684 37.7983 51.675 37.3159C51.4607 36.8878 51.7384 36.3975 52.2114 36.3975C53.0544 36.4739 54.434 36.4739 56.4263 36.4739C58.5721 36.4739 60.0279 36.3975 60.9477 36.3975C61.2543 36.3975 61.5606 36.627 61.5606 36.9333C61.5606 37.0864 61.4841 37.2395 61.4076 37.3926Z" fill="white"></path><path opacity="0.15" d="M60.1047 38.2344C59.3383 38.3111 58.1122 38.3111 56.4263 38.3111C54.8171 38.3111 53.6675 38.2344 53.0544 38.2344C52.3676 38.2344 52.0076 37.8508 51.675 37.3159C51.4607 36.8878 51.7384 36.3975 52.2114 36.3975C53.2077 36.7801 54.434 37.852 60.1047 38.2344Z" fill="black"></path><path d="M63.1717 34.2543C62.7886 34.9432 62.099 35.4023 61.256 35.479C60.1832 35.5557 58.4205 35.6321 56.3514 35.6321C54.3592 35.6321 52.7497 35.5557 51.677 35.479C50.9105 35.4023 50.2208 34.9432 49.8377 34.2543L49.6079 33.8716C49.4546 33.5653 49.5311 33.1827 49.8377 33.0292C49.9142 32.9531 50.0675 32.9531 50.1443 32.9531C51.2936 33.0293 53.4394 33.1827 56.3514 33.1827C59.3402 33.1827 61.5626 33.0293 62.7886 32.9531C63.0952 32.9531 63.4018 33.1827 63.4018 33.4886C63.4018 33.7526 63.2827 34.0052 63.1717 34.2543Z" fill="white"></path><path opacity="0.15" d="M61.3115 35.4661C60.2387 35.5428 58.4935 35.6315 56.4245 35.6315C54.4319 35.6315 52.8228 35.555 51.7497 35.4783C50.9835 35.4019 50.3896 35.0729 49.9183 34.3913L49.619 33.8815C49.4044 33.4533 49.6336 32.928 50.1636 32.9499C51.6966 33.5621 53.9548 34.8536 61.3115 35.4661Z" fill="black"></path><path fill-rule="evenodd" clip-rule="evenodd" d="M49.1409 8.12227C48.9395 11.0718 48.7359 14.0525 49.5447 14.9706C50.831 16.1948 52.0258 17.2606 53.2159 18.1972C52.5338 19.1952 51.801 20.2699 51.3323 20.9571C51.0605 21.356 51.1641 21.8987 51.563 22.1709L53.3847 23.4136C53.7844 23.6861 54.329 23.584 54.6017 23.185L56.4795 20.4387C57.7759 21.1968 59.0499 21.7899 60.7388 22.4137C60.7393 22.4116 60.7399 22.4096 60.7408 22.4076C63.115 23.269 65.9006 23.9485 69.4412 24.5615C69.4412 24.5615 66.4959 29.8237 65.0106 30.7865C62.3044 31.9873 50.6514 31.8844 47.9663 30.7994C46.1104 30.0495 39.6299 17.8254 39.7117 15.7718C40.781 12.5045 47.6938 1.45755 48.495 1.30664C49.5748 1.76247 49.359 4.92406 49.1409 8.12227Z" fill="#C1B8C7"></path><path d="M73.1573 16.8198C73.3929 14.2365 66.424 2.84007 64.2668 1.14171C63.7345 0.792473 62.5341 0.224213 58.9225 0.0791016C63.7082 12.322 62.5978 20.7862 56.7734 31.654C60.3967 31.605 64.6005 31.2063 65.1661 30.702C67.328 28.9985 72.994 18.6101 73.1573 16.8198Z" fill="#ECE4F1"></path><path d="M49.2017 12.584C49.2017 12.584 47.5449 12.9189 45.0709 13.525C42.5968 14.1312 40.0329 16.2072 39.8516 16.3678C40.5783 18.8538 41.6715 21.1028 43.067 23.5871C44.4627 26.0715 46.4386 29.7049 47.7548 30.6764C48.1981 30.9777 49.851 31.2271 49.851 31.2271C49.851 31.2271 48.0565 26.1188 48.3263 21.0593C48.5958 15.9998 49.2017 12.584 49.2017 12.584Z" fill="url(#paint0_linear_2060_7082)"></path><path d="M69.2453 7.97839C69.2453 7.97839 69.0567 7.82492 70.5178 10.3304C65.3073 11.6348 61.9929 14.9725 61.9929 14.9725C61.9929 14.9725 61.8238 12.531 61.5938 9.31597C64.761 7.97839 69.2453 7.97839 69.2453 7.97839Z" fill="url(#paint1_linear_2060_7082)"></path><path d="M42.782 23.1393C42.782 23.1393 39.6992 17.114 39.6992 15.8061C40.1562 13.3841 46.8994 1.65322 48.7588 1.0562C51.1873 0.0222753 62.0738 -0.623119 64.4051 1.21974C66.3912 3.19531 68.3215 6.52553 69.1814 7.98803C56.6837 8.99641 46.4877 15.1405 42.782 23.1393Z" fill="white"></path></g><defs><linearGradient id="paint0_linear_2060_7082" x1="44.6755" y1="18.0828" x2="45.9866" y2="26.5416" gradientUnits="userSpaceOnUse"><stop stop-color="#D8CEDE"></stop><stop offset="0.932292" stop-color="#F3EFF5"></stop></linearGradient><linearGradient id="paint1_linear_2060_7082" x1="64.5271" y1="7.37852" x2="66.3729" y2="16.6581" gradientUnits="userSpaceOnUse"><stop stop-opacity="0.1"></stop><stop offset="1" stop-opacity="0.04"></stop></linearGradient><clipPath id="clip0_2060_7082"><rect width="113" height="56" fill="white"></rect></clipPath></defs></svg>